Coordinates
version=1
nRows=20
nColumns=38
inDegrees=no

Units are S.I. units (second, meters, Newtons, ...)
If the header above contains a line with 'inDegrees', this indicates whether rotational values are in degrees (yes) or radians (no).

endheader
time	pelvis_tilt	pelvis_list	pelvis_rotation	pelvis_tx	pelvis_ty	pelvis_tz	hip_flexion_r	hip_adduction_r	hip_rotation_r	knee_angle_r	ankle_angle_r	subtalar_angle_r	mtp_angle_r	hip_flexion_l	hip_adduction_l	hip_rotation_l	knee_angle_l	ankle_angle_l	subtalar_angle_l	mtp_angle_l	lumbar_extension	lumbar_bending	lumbar_rotation	arm_flex_r	arm_add_r	arm_rot_r	elbow_flex_r	pro_sup_r	wrist_flex_r	wrist_dev_r	arm_flex_l	arm_add_l	arm_rot_l	elbow_flex_l	pro_sup_l	wrist_flex_l	wrist_dev_l
0.48	-0.845826	1.48619	-0.458821	0.731585	0.492576	1.03382	0.224551	0.0409609	-0.289544	0.0982846	-0.27229	0	0	-0.323358	-0.146823	-0.236925	0.504683	-0.294389	0	0	-0.44516	0.150427	-0.147067	-0.0495938	-0.381965	0.422535	0.660846	0.894916	0	0	-0.00603328	-0.526157	0.13236	0.892643	1.38972	0	0
0.49	-0.877841	1.47623	-0.427282	0.731431	0.478946	1.03459	0.228921	0.0533508	-0.271393	0.140074	-0.24459	0	0	-0.304964	-0.160616	-0.217849	0.563322	-0.325806	0	0	-0.449384	0.165037	-0.13899	-0.0464717	-0.384843	0.42599	0.659589	0.886616	0	0	-0.00222243	-0.515325	0.133758	0.876255	1.39101	0	0
0.5	-0.924333	1.4675	-0.378968	0.731282	0.465632	1.03504	0.235388	0.0652499	-0.257145	0.180135	-0.216852	0	0	-0.279362	-0.174627	-0.192281	0.626846	-0.354375	0	0	-0.450968	0.180175	-0.134749	-0.042394	-0.386548	0.42909	0.657607	0.879714	0	0	-0.00108537	-0.505621	0.132514	0.862231	1.39159	0	0
0.51	-0.96616	1.46024	-0.3355	0.730921	0.452671	1.03507	0.240104	0.0768429	-0.245877	0.213328	-0.190385	0	0	-0.249599	-0.186787	-0.164639	0.693246	-0.381697	0	0	-0.45192	0.193273	-0.132641	-0.0380148	-0.387946	0.432385	0.657615	0.875362	0	0	-0.00275223	-0.497993	0.128924	0.85271	1.38812	0	0
0.52	-0.991193	1.45466	-0.307985	0.730413	0.439864	1.03474	0.240592	0.0867724	-0.24068	0.239102	-0.164379	0	0	-0.217911	-0.196722	-0.136807	0.761081	-0.410127	0	0	-0.452829	0.203264	-0.133492	-0.0345808	-0.388405	0.434644	0.660149	0.873094	0	0	-0.00712093	-0.493317	0.124442	0.847382	1.37965	0	0
0.53	-1.00403	1.45165	-0.291383	0.729917	0.427116	1.03414	0.23711	0.0934411	-0.242086	0.257417	-0.138633	0	0	-0.184854	-0.203402	-0.109361	0.827948	-0.440107	0	0	-0.452529	0.209611	-0.137221	-0.0325941	-0.387851	0.436003	0.664044	0.872783	0	0	-0.0127757	-0.491823	0.12233	0.844594	1.36929	0	0
0.54	-1.00472	1.45118	-0.286033	0.729485	0.414421	1.03351	0.229831	0.0968884	-0.248028	0.269808	-0.114685	0	0	-0.151769	-0.206321	-0.0825934	0.891565	-0.467312	0	0	-0.451487	0.212374	-0.142541	-0.0316115	-0.386215	0.436879	0.667679	0.873444	0	0	-0.0179129	-0.492675	0.12393	0.842449	1.35826	0	0
0.55	-0.989813	1.45257	-0.296732	0.729078	0.401788	1.03319	0.217999	0.0982861	-0.255677	0.276634	-0.0942563	0	0	-0.120654	-0.20572	-0.0591182	0.950687	-0.479511	0	0	-0.451289	0.211944	-0.147208	-0.0311683	-0.383539	0.437118	0.669966	0.872872	0	0	-0.0204936	-0.494531	0.129486	0.838908	1.34772	0	0
0.56	-0.963506	1.45482	-0.320736	0.728639	0.389258	1.03337	0.200653	0.0997798	-0.257064	0.27519	-0.0782681	0	0	-0.0923907	-0.202328	-0.0397585	1.00482	-0.465501	0	0	-0.452607	0.209376	-0.148997	-0.0303903	-0.380882	0.437872	0.670497	0.871404	0	0	-0.0195396	-0.496679	0.139519	0.833238	1.33968	0	0
0.57	-0.923133	1.45824	-0.360971	0.727973	0.376654	1.03385	0.185047	0.0978817	-0.267966	0.278995	-0.0629874	0	0	-0.0675427	-0.195974	-0.0250048	1.05401	-0.424726	0	0	-0.454534	0.203669	-0.148016	-0.0302706	-0.377951	0.438967	0.669713	0.869443	0	0	-0.0163131	-0.500309	0.154651	0.826952	1.33283	0	0
0.58	-0.871917	1.46136	-0.41469	0.727102	0.364079	1.03472	0.16878	0.0949074	-0.27849	0.282733	-0.0506734	0	0	-0.0457604	-0.188541	-0.0161059	1.09864	-0.367937	0	0	-0.457748	0.196581	-0.143857	-0.0304079	-0.375426	0.439754	0.668622	0.866796	0	0	-0.0114474	-0.504437	0.172355	0.820865	1.32518	0	0
0.59	-0.821434	1.46418	-0.470894	0.726097	0.351611	1.03591	0.151765	0.0945327	-0.276292	0.282368	-0.042423	0	0	-0.0251905	-0.181086	-0.0147823	1.13864	-0.311234	0	0	-0.461503	0.18876	-0.136844	-0.0302247	-0.373681	0.440173	0.667588	0.864201	0	0	-0.00684093	-0.507512	0.187999	0.815418	1.32314	0	0
0.6	-0.774062	1.46771	-0.526549	0.72495	0.339203	1.0372	0.138074	0.0933661	-0.273565	0.285843	-0.0346414	0	0	-0.00448853	-0.173121	-0.0197197	1.17388	-0.250741	0	0	-0.464146	0.179573	-0.127776	-0.0304693	-0.372593	0.440757	0.666657	0.862116	0	0	-0.00267621	-0.510438	0.203444	0.810354	1.3263	0	0
0.61	-0.726708	1.47231	-0.583564	0.723785	0.326894	1.03854	0.127812	0.0905692	-0.270173	0.293991	-0.0263547	0	0	0.0169937	-0.164158	-0.0285635	1.20373	-0.192682	0	0	-0.465392	0.169295	-0.118923	-0.0308225	-0.37188	0.44102	0.66618	0.860406	0	0	9.53071e-05	-0.51282	0.216137	0.806301	1.33111	0	0
0.62	-0.668991	1.47574	-0.650901	0.722707	0.314664	1.04022	0.114213	0.0888163	-0.257746	0.297673	-0.0195856	0	0	0.0370157	-0.156094	-0.039059	1.22674	-0.141387	0	0	-0.467483	0.159932	-0.111361	-0.030623	-0.371576	0.441208	0.666207	0.859378	0	0	0.00106942	-0.514308	0.224648	0.803343	1.33518	0	0
0.63	-0.59174	1.47733	-0.737815	0.721663	0.302476	1.04217	0.0983351	0.0871422	-0.248349	0.300807	-0.0140863	0	0	0.0540488	-0.148954	-0.050504	1.24234	-0.0991554	0	0	-0.471623	0.151048	-0.105246	-0.030245	-0.371699	0.441032	0.667791	0.859416	0	0	-0.000539457	-0.515607	0.228369	0.802599	1.33909	0	0
0.64	-0.506836	1.47649	-0.832944	0.720672	0.290427	1.04435	0.0793923	0.0861356	-0.238207	0.30172	-0.00881761	0	0	0.068398	-0.14342	-0.0628834	1.25083	-0.0625576	0	0	-0.477952	0.143019	-0.0988749	-0.0300443	-0.372752	0.440175	0.671275	0.860302	0	0	-0.003443	-0.516348	0.22858	0.80409	1.34217	0	0
0.65	-0.439761	1.47546	-0.907838	0.719946	0.278427	1.04653	0.0609175	0.0852403	-0.231633	0.300852	-0.00574335	0	0	0.0844632	-0.139558	-0.0736651	1.2536	-0.0346755	0	0	-0.482187	0.136956	-0.0947555	-0.0297103	-0.373586	0.439701	0.673413	0.862229	0	0	-0.00713811	-0.51583	0.226197	0.805107	1.34344	0	0
0.66	-0.390429	1.47522	-0.963734	0.719397	0.266486	1.0486	0.0431324	0.0847167	-0.227087	0.296692	-0.0043618	0	0	0.102542	-0.136528	-0.0832097	1.25149	-0.00900343	0	0	-0.484119	0.132047	-0.0919715	-0.0291621	-0.374123	0.439621	0.674058	0.865057	0	0	-0.0113987	-0.5143	0.221859	0.80569	1.34312	0	0
0.67	-0.346727	1.47624	-1.0134	0.718923	0.254541	1.05044	0.0242268	0.0840046	-0.227594	0.287327	-0.0045294	0	0	0.121792	-0.133357	-0.0923846	1.2448	0.0124204	0	0	-0.483799	0.126977	-0.090449	-0.0291195	-0.374446	0.439814	0.674413	0.868659	0	0	-0.0166103	-0.512946	0.216747	0.806397	1.34181	0	0
